<svg width="24" height="24" viewBox="0 0 24 24" fill="none" xmlns="http://www.w3.org/2000/svg">
<g clip-path="url(#clip0_204_4813)">
<path d="M0.746277 16.1748C2.44179 20.7443 6.84031 24.0009 11.9999 24.0009C17.1595 24.0009 21.558 20.7443 23.2535 16.1748L11.9999 15.1313L0.746277 16.1748Z" fill="#FFDA44"/>
<path d="M11.9999 0.000976562C6.84031 0.000976562 2.44179 3.25748 0.746277 7.82709L11.9999 8.87052L23.2535 7.82704C21.558 3.25748 17.1595 0.000976562 11.9999 0.000976562Z" fill="black"/>
<path d="M0.746452 7.82568C0.264108 9.12567 6.10352e-05 10.5317 6.10352e-05 11.9996C6.10352e-05 13.4674 0.264108 14.8735 0.746452 16.1735H23.2537C23.7361 14.8735 24.0001 13.4674 24.0001 11.9996C24.0001 10.5317 23.7361 9.12567 23.2537 7.82568H0.746452Z" fill="#D80027"/>
</g>
<defs>
<clipPath id="clip0_204_4813">
<rect width="24" height="24" fill="white"/>
</clipPath>
</defs>
</svg>
