<svg width="24" height="24" viewBox="0 0 24 24" fill="none" xmlns="http://www.w3.org/2000/svg">
<g clip-path="url(#clip0_204_4775)">
<path d="M12 24C18.6274 24 24 18.6274 24 12C24 5.37258 18.6274 0 12 0C5.37258 0 0 5.37258 0 12C0 18.6274 5.37258 24 12 24Z" fill="#D80027"/>
<path d="M13.2391 9.07739C12.9664 10.2117 12.4818 9.99539 12.244 10.9846C10.8433 10.6478 9.98058 9.23925 10.3174 7.83839C10.654 6.43763 12.0628 5.57494 13.4636 5.91174C12.9879 7.89019 13.4831 8.06288 13.2391 9.07739Z" fill="#F0F0F0"/>
<path d="M9.6042 9.91724C10.5987 10.5271 10.2432 10.9212 11.1105 11.4531C10.3573 12.6812 8.75117 13.0663 7.52295 12.3132C6.29478 11.56 5.9096 9.95376 6.66279 8.72559C8.39745 9.78927 8.71456 9.37176 9.6042 9.91724Z" fill="#F0F0F0"/>
<path d="M9.28001 13.6348C10.1674 12.8774 10.4322 13.3372 11.2061 12.6768C12.1414 13.7726 12.0113 15.4192 10.9156 16.3546C9.81973 17.29 8.1731 17.1597 7.23785 16.064C8.78538 14.7429 8.48627 14.3122 9.28001 13.6348Z" fill="#F0F0F0"/>
<path d="M12.7152 15.0914C12.2689 14.0135 12.7881 13.9036 12.3991 12.9636C13.7303 12.4127 15.2562 13.0452 15.8072 14.3764C16.3581 15.7076 15.7255 17.2334 14.3943 17.7844C13.6163 15.9043 13.1143 16.0557 12.7152 15.0914Z" fill="#F0F0F0"/>
<path d="M15.162 12.2738C13.9989 12.3651 14.0547 11.8373 13.0406 11.9169C12.9279 10.4807 14.0011 9.22483 15.4374 9.11209C16.8736 8.99964 18.1294 10.0727 18.242 11.5091C16.2134 11.6681 16.2022 12.1923 15.162 12.2738Z" fill="#F0F0F0"/>
</g>
<defs>
<clipPath id="clip0_204_4775">
<rect width="24" height="24" fill="white"/>
</clipPath>
</defs>
</svg>
