<svg width="24" height="24" viewBox="0 0 24 24" fill="none" xmlns="http://www.w3.org/2000/svg">
<g clip-path="url(#clip0_204_4731)">
<path d="M12 24C18.6274 24 24 18.6274 24 12C24 5.37258 18.6274 0 12 0C5.37258 0 0 5.37258 0 12C0 18.6274 5.37258 24 12 24Z" fill="#F0F0F0"/>
<path d="M16.1741 11.9996C16.1741 13.0431 14.3054 15.6517 12.0002 15.6517C9.69501 15.6517 7.82629 13.0431 7.82629 11.9996C7.82629 9.69436 9.69501 7.82568 12.0002 7.82568C14.3054 7.82568 16.1741 9.69436 16.1741 11.9996Z" fill="#D80027"/>
<path d="M16.1741 11.9995C16.1741 14.3047 14.3054 16.1734 12.0002 16.1734C9.69501 16.1734 7.82629 14.3047 7.82629 11.9995" fill="#0052B4"/>
<path d="M17.5336 14.5827L16.4268 15.6895L17.1647 16.4273L18.2714 15.3205L17.5336 14.5827Z" fill="black"/>
<path d="M15.6885 16.4269L14.5817 17.5337L15.3196 18.2715L16.4263 17.1648L15.6885 16.4269Z" fill="black"/>
<path d="M19.7471 16.7946L18.6403 17.9014L19.3782 18.6392L20.4849 17.5325L19.7471 16.7946Z" fill="black"/>
<path d="M17.903 18.6408L16.7963 19.7476L17.5341 20.4854L18.6409 19.3787L17.903 18.6408Z" fill="black"/>
<path d="M18.6406 15.6896L17.5339 16.7964L18.2717 17.5342L19.3785 16.4275L18.6406 15.6896Z" fill="black"/>
<path d="M16.796 17.5339L15.6892 18.6406L16.4271 19.3785L17.5338 18.2717L16.796 17.5339Z" fill="black"/>
<path d="M15.6893 5.35821L18.6407 8.30957L19.3785 7.57172L16.4272 4.62037L15.6893 5.35821Z" fill="black"/>
<path d="M14.5828 6.466L15.6895 7.57275L16.4273 6.83494L15.3206 5.72818L14.5828 6.466Z" fill="black"/>
<path d="M16.4274 8.31024L17.5342 9.41699L18.272 8.67918L17.1652 7.57243L16.4274 8.31024Z" fill="black"/>
<path d="M16.7951 4.25213L17.9019 5.35889L18.6397 4.62104L17.5329 3.51428L16.7951 4.25213Z" fill="black"/>
<path d="M18.6409 6.09784L19.7476 7.20459L20.4855 6.46674L19.3787 5.35999L18.6409 6.09784Z" fill="black"/>
<path d="M7.20343 19.7477L4.25208 16.7964L3.51423 17.5342L6.46558 20.4856L7.20343 19.7477Z" fill="black"/>
<path d="M8.31067 18.64L7.20392 17.5332L6.4661 18.271L7.57286 19.3778L8.31067 18.64Z" fill="black"/>
<path d="M6.46589 16.7957L5.35913 15.689L4.62128 16.4268L5.72804 17.5336L6.46589 16.7957Z" fill="black"/>
<path d="M9.41748 17.5339L6.46613 14.5825L5.72828 15.3204L8.67964 18.2717L9.41748 17.5339Z" fill="black"/>
<path d="M4.25268 7.20478L7.20404 4.25342L6.46619 3.51557L3.51483 6.46693L4.25268 7.20478Z" fill="black"/>
<path d="M5.35864 8.30976L8.31 5.3584L7.57215 4.62055L4.62079 7.57191L5.35864 8.30976Z" fill="black"/>
<path d="M6.46637 9.41718L9.41772 6.46582L8.67991 5.728L5.72855 8.67936L6.46637 9.41718Z" fill="black"/>
</g>
<defs>
<clipPath id="clip0_204_4731">
<rect width="24" height="24" fill="white"/>
</clipPath>
</defs>
</svg>
